<?xml version="1.0" encoding="UTF-8" standalone="no"?>
<!-- Created with Inkscape (http://www.inkscape.org/) -->

<svg
   xmlns:dc="http://purl.org/dc/elements/1.1/"
   xmlns:cc="http://creativecommons.org/ns#"
   xmlns:rdf="http://www.w3.org/1999/02/22-rdf-syntax-ns#"
   xmlns:svg="http://www.w3.org/2000/svg"
   xmlns="http://www.w3.org/2000/svg"
   xmlns:sodipodi="http://sodipodi.sourceforge.net/DTD/sodipodi-0.dtd"
   xmlns:inkscape="http://www.inkscape.org/namespaces/inkscape"
   width="210mm"
   height="297mm"
   viewBox="0 0 210 297"
   version="1.1"
   id="svg8"
   inkscape:version="0.92.0 r15299"
   sodipodi:docname="Human.svg"
   inkscape:export-filename="C:\Users\robin\Desktop\verbose-pancake\CampingRace\CampingRaceWindows\Content\Content\Textures\Human.png"
   inkscape:export-xdpi="96"
   inkscape:export-ydpi="96">
  <defs
     id="defs2" />
  <sodipodi:namedview
     id="base"
     pagecolor="#ffffff"
     bordercolor="#666666"
     borderopacity="1.0"
     inkscape:pageopacity="0.0"
     inkscape:pageshadow="2"
     inkscape:zoom="0.35"
     inkscape:cx="-454.28571"
     inkscape:cy="560"
     inkscape:document-units="mm"
     inkscape:current-layer="layer1"
     showgrid="false"
     inkscape:window-width="2560"
     inkscape:window-height="1387"
     inkscape:window-x="-8"
     inkscape:window-y="-8"
     inkscape:window-maximized="1" />
  <metadata
     id="metadata5">
    <rdf:RDF>
      <cc:Work
         rdf:about="">
        <dc:format>image/svg+xml</dc:format>
        <dc:type
           rdf:resource="http://purl.org/dc/dcmitype/StillImage" />
        <dc:title />
      </cc:Work>
    </rdf:RDF>
  </metadata>
  <g
     inkscape:label="Layer 1"
     inkscape:groupmode="layer"
     id="layer1">
    <path
       id="path3680"
       d="m 84.39447,29.643474 c -0.591838,0.273119 -1.191159,0.530569 -1.775515,0.819352 -0.693116,0.342529 -1.372376,0.71244 -2.055747,1.074017 -0.716888,0.37931 -2.843786,1.560277 -2.144979,1.148609 14.40612,-8.486644 6.764453,-3.89718 3.665627,-1.713891 -3.354149,2.555835 -5.943555,5.866908 -8.227936,9.371613 -1.888011,2.827208 -2.557475,6.043319 -2.91846,9.36059 -0.481322,4.439354 0.319292,7.414276 2.333027,11.339431 2.362224,4.123282 6.124983,7.259566 10.298118,9.472139 1.12857,0.598363 2.317419,1.075356 3.47613,1.613035 5.709928,2.397841 11.753022,4.167727 17.934645,4.790929 1.17338,0.118295 2.35426,0.143891 3.53139,0.215839 4.52443,-0.01484 9.08469,-0.603155 13.1918,-2.610625 0.93622,-0.457605 3.63437,-2.039498 2.7092,-1.559936 -2.37329,1.230202 -4.7035,2.54181 -7.05524,3.812717 4.20283,-3.285524 7.41193,-7.578312 9.61263,-12.407974 1.14829,-3.341362 1.99237,-6.968161 1.57353,-10.529866 -0.0856,-0.728067 -0.27921,-1.439336 -0.41882,-2.159005 -1.29906,-4.739127 -4.30372,-7.840546 -8.01735,-10.83923 -5.83438,-3.683955 -12.39616,-6.145893 -18.91353,-8.347922 -4.859202,-1.598824 -9.949619,-1.933453 -15.021292,-2.106327 -3.272264,-0.08421 -6.535944,0.08555 -9.79428,-0.257971 -0.962231,-0.118401 -1.926608,-0.214953 -2.892076,-0.301934 0,0 9.167892,-6.523902 9.167892,-6.523902 v 0 c 0.955649,0.102713 1.910281,0.213782 2.865747,0.318189 3.215251,0.283785 6.444419,0.101216 9.666393,0.272854 5.129916,0.244155 10.265646,0.681792 15.146336,2.414813 5.43575,1.935118 11.38384,4.136782 16.42443,6.925053 0.94188,0.521015 1.82107,1.148091 2.7316,1.722136 3.9146,3.176802 7.00403,6.50498 8.4324,11.475979 0.17129,0.768758 0.40189,1.526667 0.51386,2.306275 0.53098,3.696761 -0.30792,7.483364 -1.37205,10.99911 -0.3082,0.743416 -0.57456,1.505585 -0.92458,2.230247 -1.99411,4.128466 -5.11831,7.717864 -8.49926,10.757093 -3.93823,2.386476 -7.84621,4.823608 -11.8147,7.159424 -0.9026,0.531262 -1.83189,1.023223 -2.7933,1.438701 -4.24007,1.832369 -8.87786,2.28327 -13.451091,2.207818 -1.200275,-0.09216 -2.405134,-0.136906 -3.600823,-0.276471 -6.237828,-0.728101 -12.305509,-2.643661 -18.067301,-5.08095 -1.198692,-0.56267 -2.429552,-1.061365 -3.596073,-1.688012 -4.333428,-2.327886 -8.207177,-5.659856 -10.685248,-9.93176 -2.130433,-4.03339 -3.123343,-7.269644 -2.689249,-11.877333 0.294978,-3.444531 0.845584,-6.836881 2.693985,-9.836605 2.258517,-3.611872 4.833762,-7.014827 8.104991,-9.783194 6.704087,-4.835594 13.970151,-8.848167 21.431845,-12.388715 0,0 -8.776676,6.97566 -8.776676,6.97566 z"
       inkscape:connector-curvature="0"
       style="stroke-width:0.26458332" />
    <path
       id="path3682"
       d="m 103.26968,81.785901 c -0.0688,7.121702 -0.14633,14.240007 -0.35687,21.359229 -0.31182,10.05773 -1.20459,20.07975 -1.90842,30.11356 -0.95471,11.35968 -2.023234,22.70922 -2.98682,34.06872 -0.951686,9.8098 -1.247297,19.65877 -1.660346,29.49968 -0.373194,7.47415 -0.574614,14.95434 -0.668046,22.43672 -0.05465,4.97916 -0.04831,9.95878 -0.0097,14.93802 0.01138,1.28063 0.02291,2.56126 0.03359,3.84189 0,0 -10.006494,5.10012 -10.006494,5.10012 v 0 c 0.0075,-1.29142 0.01582,-2.58283 0.02659,-3.87423 0.03939,-5.00689 0.06285,-10.01394 0.135007,-15.02052 0.134318,-7.50725 0.337817,-15.01379 0.745984,-22.51185 0.460791,-9.88383 0.766273,-19.77863 1.81152,-29.62583 0.98973,-11.32853 1.880709,-22.66496 2.87019,-33.9929 0.728805,-10.01432 1.637943,-20.01741 1.908469,-30.05959 0.172047,-7.06046 0.256637,-14.12027 0.07362,-21.181973 0,0 9.991746,-5.091046 9.991746,-5.091046 z"
       inkscape:connector-curvature="0"
       style="stroke-width:0.26458332" />
    <path
       id="path3684"
       d="m 95.468153,234.73423 c -5.24365,5.05676 -10.589165,10.00877 -16.041415,14.83965 -5.228764,4.69184 -10.52721,9.32167 -16.058716,13.65529 -3.251946,2.59267 -6.550736,5.12569 -9.826368,7.68794 0,0 -10.400461,4.17304 -10.400461,4.17304 v 0 c 3.264845,-2.66274 6.731167,-5.07992 9.980025,-7.76637 5.593334,-4.30043 10.941272,-8.92356 16.191616,-13.63301 5.396701,-4.7638 10.728275,-9.6175 15.808439,-14.7191 0,0 10.34688,-4.23744 10.34688,-4.23744 z"
       inkscape:connector-curvature="0"
       style="stroke-width:0.26458332" />
    <path
       id="path3686"
       d="m 103.09007,237.26103 c 3.85276,7.84194 8.12663,15.4851 13.13396,22.65007 2.38128,3.50937 5.6523,6.17527 8.71989,9.03349 0,0 -9.51803,5.8652 -9.51803,5.8652 v 0 c -3.04737,-2.9628 -6.26349,-5.77768 -8.64449,-9.3472 -4.9182,-7.26486 -9.063437,-14.98398 -13.388961,-22.60839 0,0 9.697631,-5.59317 9.697631,-5.59317 z"
       inkscape:connector-curvature="0"
       style="stroke-width:0.26458332" />
    <path
       id="path3688"
       d="m 82.258653,159.17433 c -1.568169,-4.89227 -3.94525,-9.44656 -6.764073,-13.72214 -1.049922,-1.58344 -2.176454,-3.11256 -3.260185,-4.67255 0,0 9.636122,-5.66145 9.636122,-5.66145 v 0 c 1.063448,1.58191 2.171568,3.13213 3.213955,4.72832 2.814759,4.37251 5.182682,8.9955 6.952726,13.89508 0,0 -9.778545,5.43274 -9.778545,5.43274 z"
       inkscape:connector-curvature="0"
       style="stroke-width:0.26458332" />
    <path
       id="path3690"
       d="m 79.10024,151.22803 c -2.246022,-3.70431 -4.99301,-7.08855 -7.728635,-10.44023 -1.973697,-2.1488 -4.076034,-4.23666 -6.587472,-5.74871 -2.029645,-1.12939 -4.178421,-1.99834 -6.275498,-2.99178 -1.86368,-0.81733 -3.66667,-1.79497 -5.445805,-2.78666 -1.938139,-1.17311 -3.917694,-2.26735 -5.830065,-3.48538 -2.777093,-2.05998 -5.927473,-3.59393 -8.594542,-5.79771 0,0 9.509694,-5.95679 9.509694,-5.95679 v 0 c 2.638136,2.14871 5.679842,3.75488 8.468939,5.6942 1.948762,1.14395 3.923829,2.24096 5.862061,3.40231 1.775962,0.96105 3.551052,1.93247 5.40359,2.74012 2.11868,1.02822 4.32688,1.86942 6.337985,3.10975 2.527705,1.68347 4.720826,3.81541 6.71435,6.09868 2.734016,3.41896 5.456701,6.8663 7.85145,10.53366 0,0 -9.686052,5.62854 -9.686052,5.62854 z"
       inkscape:connector-curvature="0"
       style="stroke-width:0.26458332" />
    <path
       id="path3692"
       d="m 85.668915,152.40672 c 7.331186,-6.45989 16.056455,-10.90663 24.470215,-15.75821 7.53965,-3.98306 15.87733,-5.85984 24.20896,-7.31603 8.90208,-1.33002 17.8632,-2.15933 26.74358,-3.6432 2.94517,-0.61343 5.85128,-1.39194 8.76859,-2.12203 0,0 -8.80949,6.73162 -8.80949,6.73162 v 0 c -2.89767,0.7031 -5.78997,1.43651 -8.72425,1.97617 -8.86213,1.38871 -17.79924,2.17948 -26.6557,3.60236 -8.31013,1.55567 -16.61328,3.53559 -24.06863,7.67823 2.08493,-1.21244 4.15667,-2.44785 6.25478,-3.63733 1.01411,-0.57493 -2.0095,1.18258 -3.00238,1.79345 -2.56218,1.57639 -4.885475,3.3037 -7.216772,5.1948 -0.523705,0.42482 -1.05438,0.84097 -1.58157,1.26145 0,0 -10.387333,4.23872 -10.387333,4.23872 z"
       inkscape:connector-curvature="0"
       style="stroke-width:0.26458332" />
  </g>
</svg>
